Coordinates
version=1
nRows=11
nColumns=33
inDegrees=yes

Units are S.I. units (second, meters, Newtons, ...)
Angles are in degrees.

endheader
time	ground_thorax_rot_x	ground_thorax_rot_y	ground_thorax_rot_z	ground_thorax_tx	ground_thorax_ty	ground_thorax_tz	clav_prot_r	clav_elev_r	scapula_abduction_r	scapula_elevation_r	scapula_upward_rot_r	scapula_winging_r	shoulder_elv_r	plane_of_elev_r	axial_rot_r	elbow_flexion_r	pro_sup_r	wrist_flex_r	wrist_dev_r	clav_prot_l	clav_elev_l	scapula_abduction_l	scapula_elevation_l	scapula_upward_rot_l	scapula_winging_l	shoulder_elv_l	plane_of_elev_l	axial_rot_l	elbow_flexion_l	pro_sup_l	wrist_flex_l	wrist_dev_l	
11.2800	31.633011	20.751767	30.191495	-78.022610	850.021332	-47.193836	12.137967	34.198508	26.226728	45.000000	-44.999979	1352.865341	1151.533503	22.479171	-169.466093	1438.102963	521.898084	17.500730	13.741811	-5.775721	-45.000000	-42.431739	45.000000	-45.000000	5143.679776	-3508.372742	17.943926	-180.000000	2166.513934	-157.433429	8.913380	-19.977055	
11.2900	31.642581	20.717259	30.218370	-77.852448	849.596670	-47.367351	12.185693	34.181684	26.233281	45.000000	-44.999962	1352.978421	1151.520540	22.505957	-169.787245	1438.147128	521.740853	17.396818	13.770676	-5.844424	-45.000000	-42.372926	45.000000	-45.000000	5143.603604	-3508.346411	17.950789	-180.000000	2166.442363	-157.371179	8.909973	-19.981501	
11.3000	31.664078	20.673171	30.232503	-77.668267	849.189501	-47.538148	12.259622	34.148182	26.237439	45.000000	-44.999931	1353.095294	1151.509578	22.527990	-170.138416	1438.174738	521.597084	17.231194	13.831351	-5.936827	-45.000000	-42.304144	45.000000	-45.000000	5143.525191	-3508.322411	17.965192	-180.000000	2166.375454	-157.299141	8.942014	-19.985973	
11.3100	31.684264	20.623156	30.245364	-77.454562	848.812888	-47.708884	12.301330	34.136978	26.255211	45.000000	-44.999877	1353.173369	1151.485287	22.550163	-170.393295	1438.191100	521.470568	17.153144	13.851986	-5.989757	-45.000000	-42.272576	45.000000	-45.000000	5143.456700	-3508.310864	17.968594	-180.000000	2166.274047	-157.226481	8.944873	-20.004450	
11.3200	31.712633	20.561065	30.245808	-77.206363	848.473870	-47.877949	12.332773	34.141152	26.282471	45.000000	-44.999780	1353.231959	1151.452387	22.574494	-170.612989	1438.205344	521.352545	17.134876	13.847702	-6.030865	-45.000000	-42.254359	45.000000	-45.000000	5143.384058	-3508.303331	17.967597	-180.000000	2166.155419	-157.150986	8.927934	-20.029586	
11.3300	31.748217	20.488205	30.238091	-76.915821	848.179506	-48.045679	12.360341	34.145773	26.326287	45.000000	-44.999606	1353.269797	1151.416512	22.597199	-170.806372	1438.200675	521.254476	17.112741	13.849359	-6.066827	-45.000000	-42.249887	45.000000	-45.000000	5143.310594	-3508.297871	17.964706	-180.000000	2166.012675	-157.068388	8.922795	-20.063026	
11.3400	31.794329	20.403293	30.215129	-76.577225	847.932520	-48.212934	12.384878	34.161957	26.379385	45.000000	-44.999294	1353.298894	1151.379286	22.625171	-171.005861	1438.196351	521.157018	17.131825	13.838427	-6.100742	-45.000000	-42.255922	45.000000	-45.000000	5143.226800	-3508.291841	17.960517	-180.000000	2165.853170	-156.984185	8.901874	-20.099870	
11.3500	31.847879	20.311167	30.185114	-76.185764	847.731615	-48.381237	12.417343	34.170264	26.444740	45.000000	-44.998736	1353.324212	1151.347335	22.654235	-171.229668	1438.177970	521.068561	17.114991	13.846517	-6.140491	-45.000000	-42.265774	45.000000	-45.000000	5143.134690	-3508.280735	17.959145	-180.000000	2165.678345	-156.894479	8.904484	-20.138238	
11.3600	31.908417	20.209221	30.146542	-75.736674	847.571962	-48.552701	12.448835	34.189384	26.520141	45.000000	-44.997735	1353.352496	1151.317436	22.689514	-171.475457	1438.169891	520.970026	17.140296	13.838055	-6.178251	-45.000000	-42.273681	45.000000	-45.000000	5143.028824	-3508.259775	17.959550	-180.000000	2165.492946	-156.809336	8.888599	-20.174721	
11.3700	31.968530	20.103553	30.111456	-75.225782	847.446154	-48.728574	12.485789	34.201912	26.606633	45.000000	-44.995947	1353.382050	1151.291609	22.726779	-171.733518	1438.154760	520.875923	17.134103	13.840064	-6.215697	-45.000000	-42.282791	45.000000	-45.000000	5142.919537	-3508.228846	17.961457	-180.000000	2165.289429	-156.726846	8.894467	-20.211426	
11.3800	32.031509	19.991742	30.073623	-74.649441	847.344881	-48.909085	12.519681	34.224648	26.699034	45.000000	-44.992726	1353.418243	1151.265768	22.767671	-172.003902	1438.149000	520.770414	17.166053	13.829407	-6.248289	-45.000000	-42.291583	45.000000	-45.000000	5142.801587	-3508.193838	17.965930	-180.000000	2165.080389	-156.655995	8.884377	-20.244435	
